<?xml version="1.0" encoding="UTF-8"?>
<!DOCTYPE svg PUBLIC "-//W3C//DTD SVG 1.1//EN" "http://www.w3.org/Graphics/SVG/1.1/DTD/svg11.dtd">
<svg xmlns="http://www.w3.org/2000/svg" version="1.1" width="76px" height="76px" style="shape-rendering:geometricPrecision; text-rendering:geometricPrecision; image-rendering:optimizeQuality; fill-rule:evenodd; clip-rule:evenodd" xmlns:xlink="http://www.w3.org/1999/xlink">
<g><path style="opacity:0.701" fill="#ff851a" d="M 51.5,15.5 C 56.6579,14.3312 59.6579,16.3312 60.5,21.5C 60.1519,23.6967 59.1519,25.53 57.5,27C 59.7231,27.6517 60.8898,29.1517 61,31.5C 62.3088,29.0243 64.1421,27.0243 66.5,25.5C 67.8333,26.1667 68.8333,27.1667 69.5,28.5C 64.2546,35.3239 59.2546,42.3239 54.5,49.5C 56.6582,52.1485 57.9916,55.1485 58.5,58.5C 55.755,58.627 53.755,57.4603 52.5,55C 41.034,54.9896 30.2006,54.823 20,54.5C 17.8333,54.6667 15.6667,54.8333 13.5,55C 11.9782,56.5218 10.4782,58.0218 9,59.5C 7.56591,59.0696 6.39925,58.2362 5.5,57C 7.44184,54.9662 9.27518,52.7995 11,50.5C 11.49,49.2068 11.6567,47.8734 11.5,46.5C 13.8333,46.5 16.1667,46.5 18.5,46.5C 17.8617,44.54 17.8617,42.7067 18.5,41C 25.2755,41.1275 30.9422,38.7941 35.5,34C 38.697,33.761 41.3637,34.9277 43.5,37.5C 43.8333,37.1667 44.1667,36.8333 44.5,36.5C 43.4586,34.4148 41.9586,32.7481 40,31.5C 38.8289,28.6497 37.6623,25.8164 36.5,23C 38.8976,21.6437 41.3976,20.4771 44,19.5C 46.4682,23.4332 47.9682,27.4332 48.5,31.5C 49.9917,29.8435 51.6584,28.3435 53.5,27C 50.2027,26.4248 48.536,24.4248 48.5,21C 48.8627,18.8077 49.8627,16.9744 51.5,15.5 Z"/></g>
</svg>
